# xmcd CD database file
#
# Track frame offsets:
#	150
#	15760
#	35420
#	63920
#	92815
#	115267
#	127562
#	145422
#	165087
#	181215
#	200077
#	219732
#
# Disc length: 3177 seconds
#
# Revision: 1
# Processed by: cddbd v1.5.1PL0 Copyright (c) Steve Scherf et al.
# Submitted via: CDex 1.51
#
DISCID=970c670c
DTITLE=Joe Weaver - Baby I Love You So
DYEAR=1999
DGENRE=Blues
TTITLE0=Do You Wanna Work Now
TTITLE1=Looka Here Pretty Baby
TTITLE2=Soft Pillow
TTITLE3=I Found A Love
TTITLE4=Tootsie Roll
TTITLE5=I´m On My Merry Way
TTITLE6=Baby I´m In Love With You
TTITLE7=It Hurt So Bad
TTITLE8=Baby I Love You So
TTITLE9=All I Do Is Cry
TTITLE10=What Am I Living For
TTITLE11=It Must Be Love
EXTD=YEAR: 1999
EXTT0=
EXTT1=
EXTT2=
EXTT3=
EXTT4=
EXTT5=
EXTT6=
EXTT7=
EXTT8=
EXTT9=
EXTT10=
EXTT11=
PLAYORDER=
